<?xml version="1.0" encoding="UTF-8" standalone="no"?>
<!-- Created with Inkscape (http://www.inkscape.org/) -->
<svg xmlns:dc="http://purl.org/dc/elements/1.1/" xmlns:cc="http://web.resource.org/cc/" xmlns:rdf="http://www.w3.org/1999/02/22-rdf-syntax-ns#" xmlns:svg="http://www.w3.org/2000/svg" xmlns="http://www.w3.org/2000/svg" xmlns:sodipodi="http://sodipodi.sourceforge.net/DTD/sodipodi-0.dtd" xmlns:inkscape="http://www.inkscape.org/namespaces/inkscape" id="svg1325" sodipodi:version="0.32" inkscape:version="0.43" width="64" height="64" sodipodi:docbase="D:\" sodipodi:docname="Cc-by.svg" version="1.0">
  <metadata id="metadata1330">
    <rdf:RDF>
      <cc:Work rdf:about="Creative Commons Attribution icon (written By): Creative Commons: CC-By 2.0. The original yellow GIF image used in Commons Deeds was edited by Rafal Pocztarski using The GIMP on November 30, 2004.">
        <dc:format>image/svg+xml</dc:format>
        <dc:type rdf:resource="http://purl.org/dc/dcmitype/StillImage"/>
      </cc:Work>
    </rdf:RDF>
  </metadata>
  <defs id="defs1328"/>
  <sodipodi:namedview inkscape:window-height="540" inkscape:window-width="813" inkscape:pageshadow="2" inkscape:pageopacity="0.0" borderopacity="1.0" bordercolor="#666666" pagecolor="#ffffff" id="base" fill="#000000" inkscape:zoom="5.828125" inkscape:cx="32" inkscape:cy="32" inkscape:window-x="20" inkscape:window-y="114" inkscape:current-layer="svg1325"/>
  <path style="opacity:1;fill:#000000;fill-opacity:1;fill-rule:nonzero;stroke:none;stroke-width:259.50698853;stroke-linecap:butt;stroke-linejoin:round;stroke-miterlimit:4;stroke-dasharray:none;stroke-dashoffset:0;stroke-opacity:1" d="M 31.1875 0 C 13.904525 0.43835438 3.7379722e-013 14.612004 0 32 C 2.3684758e-015 49.663996 14.336004 64 32 64 C 49.663996 64 64 49.663996 64 32 C 64 14.336004 49.663996 1.3812956e-013 32 0 C 31.724 3.7007434e-017 31.461833 -0.0069580061 31.1875 0 z M 31.15625 5.5 C 31.439783 5.4910103 31.714297 5.5 32 5.5 C 46.628003 5.4999998 58.5 17.371998 58.5 32 C 58.499998 46.628001 46.628002 58.5 32 58.5 C 17.371999 58.499999 5.5 46.628002 5.5 32 C 5.4999999 17.657701 16.922915 5.9512829 31.15625 5.5 z " id="path1334"/>
  <path id="text2251" style="font-size:23.87030983px;font-style:normal;font-variant:normal;font-weight:bold;font-stretch:normal;text-align:start;line-height:100%;writing-mode:lr-tb;text-anchor:start;fill:#000000;fill-opacity:1;stroke:none;stroke-width:1px;stroke-linecap:butt;stroke-linejoin:miter;stroke-opacity:1;font-family:Arial" d="M 15.688151,23.047989 L 22.234168,23.047989 C 23.529956,23.048007 24.494357,23.108813 25.127372,23.230407 C 25.767813,23.343929 26.337517,23.587153 26.836486,23.96008 C 27.342876,24.333039 27.763638,24.831649 28.098772,25.455909 C 28.433878,26.072091 28.601438,26.76528 28.601453,27.535475 C 28.601438,28.370559 28.392919,29.136713 27.975894,29.833945 C 27.56629,30.531198 27.007757,31.05413 26.300294,31.402741 C 27.298194,31.718941 28.065246,32.258088 28.601453,33.020182 C 29.13763,33.782291 29.405726,34.678167 29.405742,35.70781 C 29.405726,36.518562 29.230719,37.30904 28.88072,38.079247 C 28.538138,38.841351 28.065246,39.453465 27.462044,39.91559 C 26.866262,40.369608 26.128997,40.649317 25.25025,40.754713 C 24.699153,40.819572 23.369843,40.86011 21.262319,40.876325 L 15.688151,40.876325 L 15.688151,23.047989 M 18.994672,26.015324 L 18.994672,30.137974 L 21.161782,30.137974 C 22.450125,30.137985 23.25069,30.117717 23.563478,30.077168 C 24.129449,30.004213 24.572552,29.793419 24.892788,29.444786 C 25.22045,29.088069 25.384287,28.621889 25.384298,28.046245 C 25.384287,27.494951 25.242792,27.049041 24.959813,26.708514 C 24.684258,26.359906 24.270944,26.149112 23.719868,26.07613 C 23.392185,26.035608 22.450125,26.01534 20.893686,26.015324 L 18.994672,26.015324 M 18.994672,33.105311 L 18.994672,37.872504 L 22.055436,37.872504 C 23.246966,37.872509 24.002848,37.836025 24.323083,37.763055 C 24.814583,37.665768 25.213004,37.430652 25.518346,37.057705 C 25.831113,36.676658 25.987502,36.169939 25.987515,35.537553 C 25.987502,35.002466 25.868349,34.548447 25.630053,34.175497 C 25.391734,33.80256 25.045443,33.53096 24.59118,33.360695 C 24.144343,33.190447 23.168772,33.105317 21.664463,33.105311 L 18.994672,33.105311 M 36.510289,40.876325 L 36.510289,33.372857 L 30.511638,23.047989 L 34.387863,23.047989 L 38.241749,30.101491 L 42.017429,23.047989 L 45.826629,23.047989 L 39.805639,33.39718 L 39.805639,40.876325 L 36.510289,40.876325 M 44.482509,40.952012 L 44.482509,37.080588 L 48.302659,37.080588 L 48.302659,40.952012 L 44.482509,40.952012 M 44.491699,31.985163 L 44.491699,28.11374 L 48.311849,28.11374 L 48.311849,31.985163 L 44.491699,31.985163"/>
</svg>